<svg xmlns="http://www.w3.org/2000/svg" viewBox="0 0 1024 1024" role="img" aria-labelledby="title">
  <title id="title">BirGe logo</title>
  <defs>
    <linearGradient id="bg" x1="180" y1="130" x2="844" y2="894" gradientUnits="userSpaceOnUse">
      <stop offset="0" stop-color="#ff3a55"/>
      <stop offset="1" stop-color="#ff4f62"/>
    </linearGradient>
  </defs>
  <rect x="112" y="112" width="800" height="800" rx="184" fill="url(#bg)"/>

  <g fill="none" stroke="#fff" stroke-linecap="round" stroke-linejoin="round">
    <path d="M278 568c-14-72 5-150 58-209 52-59 126-87 198-83" stroke-width="82"/>
    <path d="M574 276c78 10 149 57 187 131 37 72 34 154-2 221" stroke-width="82"/>
    <path d="M727 690c-54 69-139 104-225 94-74-8-139-48-181-108" stroke-width="82"/>

    <path d="M324 557c-29-81 1-174 76-222" stroke-width="31"/>
    <path d="M601 333c82-11 164 28 206 99" stroke-width="31"/>
    <path d="M650 702c-72 56-173 58-248 5" stroke-width="31"/>
  </g>

  <circle cx="512" cy="246" r="46" fill="#fff"/>
  <circle cx="269" cy="672" r="46" fill="#fff"/>
  <circle cx="755" cy="672" r="46" fill="#fff"/>

  <circle cx="512" cy="548" r="145" fill="#ff485c"/>
  <path d="M512 405v202" stroke="#fff" stroke-width="58" stroke-linecap="round"/>
  <path d="M454 560l58 64 58-64" fill="none" stroke="#fff" stroke-width="58" stroke-linecap="round" stroke-linejoin="round"/>
</svg>
